<?xml version="1.0" standalone="no"?>
<!DOCTYPE svg PUBLIC "-//W3C//DTD SVG 20010904//EN"
 "http://www.w3.org/TR/2001/REC-SVG-20010904/DTD/svg10.dtd">
<svg version="1.0" xmlns="http://www.w3.org/2000/svg"
 width="512.000000pt" height="512.000000pt" viewBox="0 0 512.000000 512.000000"
 preserveAspectRatio="xMidYMid meet">
<metadata>
Created by potrace 1.14, written by Peter Selinger 2001-2017
</metadata>
<g transform="translate(0.000000,512.000000) scale(0.100000,-0.100000)"
fill="#000000" stroke="none">
<path d="M1620 3999 c-38 -16 -59 -39 -70 -78 -5 -20 -43 -270 -85 -556 -190
-1296 -286 -1953 -291 -1982 -5 -24 -3 -33 8 -33 8 0 91 162 208 403 107 221
272 562 368 757 96 195 188 384 204 420 35 77 63 110 94 110 15 0 112 -77 286
-226 299 -257 304 -261 324 -248 12 7 343 678 580 1172 l63 134 -62 28 c-34
15 -100 40 -147 54 -164 52 -224 56 -865 55 -364 0 -599 -4 -615 -10z"/>
<path d="M3748 3363 c-9 -10 -228 -313 -488 -673 -260 -360 -481 -664 -491
-674 -18 -20 -19 -20 -58 10 -21 16 -139 117 -261 224 -292 256 -292 256 -327
241 -20 -8 -139 -166 -428 -568 -220 -305 -429 -597 -464 -648 -71 -104 -73
-122 -15 -150 31 -15 96 -16 677 -12 606 3 647 4 732 24 440 101 799 355 1058
748 157 239 250 531 264 825 9 192 -26 394 -98 567 -43 103 -68 124 -101 86z"/>
</g>
</svg>
